<?xml version="1.0" encoding="utf-8"?>
<!-- Svg Vector Icons : http://www.onlinewebfonts.com/icon -->
<!DOCTYPE svg PUBLIC "-//W3C//DTD SVG 1.1//EN" "http://www.w3.org/Graphics/SVG/1.1/DTD/svg11.dtd">
<svg version="1.1" xmlns="http://www.w3.org/2000/svg" xmlns:xlink="http://www.w3.org/1999/xlink" x="0px" y="0px" viewBox="0 0 256 256" enable-background="new 0 0 256 256" xml:space="preserve">
<metadata> Svg Vector Icons : http://www.onlinewebfonts.com/icon </metadata>
<g><g><path fill="#000000" d="M128,246c-65.2,0-118-52.8-118-118C10,62.8,62.8,10,128,10c65.2,0,118,52.8,118,118C246,193.2,193.2,246,128,246z M128,20.7c-59.2,0-107.3,48-107.3,107.3c0,59.2,48,107.3,107.3,107.3c59.2,0,107.3-48,107.3-107.3C235.3,68.8,187.2,20.7,128,20.7z M176.3,187c-3,0-5.3-2.4-5.3-5.4h-0.4c-2.6-21.2-20.7-37.6-42.5-37.6c-21.9,0-39.9,16.4-42.5,37.6h-0.5c0,3-2.4,5.4-5.3,5.4c-2.9,0-5.3-2.4-5.3-5.4c0-1,0.3-1.8,0.7-2.6c2.8-18.3,14.6-33.6,31-41c-12.6-7.5-21-21.2-21-36.9c0-23.7,19.2-42.9,42.9-42.9c23.7,0,42.9,19.2,42.9,42.9c0,15.7-8.5,29.4-21,36.9c16.3,7.3,28.1,22.6,30.9,40.8c0.5,0.8,0.9,1.7,0.9,2.8C181.6,184.6,179.2,187,176.3,187z M160.2,101.2c0-17.8-14.4-32.1-32.2-32.1c-17.8,0-32.2,14.4-32.2,32.1s14.4,32.1,32.2,32.1C145.8,133.3,160.2,118.9,160.2,101.2z"/></g></g>
</svg>